<svg width="24" height="24" viewBox="0 0 24 24" fill="none" xmlns="http://www.w3.org/2000/svg">
<path d="M15.0496 1.37109C14.8916 1.37109 14.7309 1.41395 14.5836 1.51306L5.08803 7.71931H0.695173C0.459459 7.71931 0.266602 7.91217 0.266602 8.14788V15.8622C0.266602 16.0979 0.459459 16.2907 0.695173 16.2907H5.08803L14.5836 22.497C14.7309 22.5934 14.8943 22.639 15.0496 22.639C15.497 22.639 15.9095 22.2827 15.9095 21.7791V2.23092C15.9095 1.72734 15.497 1.37109 15.0496 1.37109ZM13.9809 19.7997L6.14339 14.6756L5.66124 14.3622H2.19517V9.64788H5.66124L6.14071 9.33449L13.9809 4.21038V19.7997ZM23.3023 11.0407H19.8737C19.638 11.0407 19.4452 11.2336 19.4452 11.4693V12.5407C19.4452 12.7765 19.638 12.9693 19.8737 12.9693H23.3023C23.538 12.9693 23.7309 12.7765 23.7309 12.5407V11.4693C23.7309 11.2336 23.538 11.0407 23.3023 11.0407ZM22.18 18.0532L19.2255 16.347C19.177 16.3192 19.1234 16.3012 19.068 16.2941C19.0125 16.287 18.9561 16.2909 18.9022 16.3056C18.8482 16.3203 18.7976 16.3455 18.7534 16.3797C18.7091 16.4139 18.6721 16.4565 18.6443 16.505L18.1112 17.4291C17.9934 17.6327 18.063 17.8952 18.2666 18.0131L21.2211 19.7193C21.2696 19.7471 21.3231 19.7651 21.3786 19.7722C21.4341 19.7793 21.4905 19.7754 21.5444 19.7607C21.5984 19.746 21.649 19.7208 21.6932 19.6866C21.7375 19.6524 21.7745 19.6098 21.8023 19.5613L22.3354 18.6372C22.4532 18.4336 22.3809 18.1711 22.18 18.0532ZM18.6416 7.50502C18.6694 7.55357 18.7065 7.59617 18.7507 7.63038C18.795 7.6646 18.8455 7.68976 18.8995 7.70444C18.9535 7.71911 19.0098 7.72301 19.0653 7.71591C19.1208 7.70881 19.1743 7.69085 19.2229 7.66306L22.1773 5.95681C22.3809 5.83895 22.4505 5.57645 22.3327 5.37288L21.8023 4.45145C21.7745 4.40291 21.7375 4.36031 21.6932 4.32609C21.649 4.29188 21.5984 4.26671 21.5444 4.25204C21.4905 4.23736 21.4341 4.23346 21.3786 4.24056C21.3231 4.24766 21.2696 4.26562 21.2211 4.29342L18.2666 5.99967C18.1688 6.05669 18.0975 6.15014 18.0684 6.25956C18.0393 6.36899 18.0547 6.48549 18.1112 6.58359L18.6416 7.50502Z" fill="white"/>
</svg>
