<svg width="24" height="24" viewBox="0 0 24 24" fill="none" xmlns="http://www.w3.org/2000/svg">
<g clip-path="url(#clip0_82_760)">
<path d="M20.8397 10.4464C20.8397 10.3286 20.7433 10.2321 20.6254 10.2321H19.0183C18.9004 10.2321 18.804 10.3286 18.804 10.4464C18.804 14.2045 15.7585 17.25 12.0004 17.25C8.24238 17.25 5.19685 14.2045 5.19685 10.4464C5.19685 10.3286 5.10042 10.2321 4.98256 10.2321H3.37542C3.25756 10.2321 3.16113 10.3286 3.16113 10.4464C3.16113 14.9652 6.5522 18.6938 10.929 19.2214V21.9643H7.03703C6.67006 21.9643 6.37542 22.3473 6.37542 22.8214V23.7857C6.37542 23.9036 6.45042 24 6.54149 24H17.4593C17.5504 24 17.6254 23.9036 17.6254 23.7857V22.8214C17.6254 22.3473 17.3308 21.9643 16.9638 21.9643H12.9647V19.2348C17.3924 18.7527 20.8397 15.0027 20.8397 10.4464ZM12.0004 15C14.5156 15 16.554 12.9857 16.554 10.5V4.5C16.554 2.01429 14.5156 0 12.0004 0C9.48524 0 7.44685 2.01429 7.44685 4.5V10.5C7.44685 12.9857 9.48524 15 12.0004 15ZM9.48256 4.5C9.48256 3.14464 10.6049 2.03571 12.0004 2.03571C13.396 2.03571 14.5183 3.14464 14.5183 4.5V10.5C14.5183 11.8554 13.396 12.9643 12.0004 12.9643C10.6049 12.9643 9.48256 11.8554 9.48256 10.5V4.5Z" fill="white"/>
</g>
<defs>
<clipPath id="clip0_82_760">
<rect width="24" height="24" fill="white"/>
</clipPath>
</defs>
</svg>
